# xmcd
#
# Track frame offsets: 
#        150
#        12572
#        26002
#        35527
#        48747
#        62862
#        76752
#        92492
#        106045
#        124765
#        135032
#        148927
#        171115
#
# Disc length: 2472 seconds
#
# Revision: 0
# Processed by: cddbd v1.4PL0 Copyright (c) Steve Scherf et al.
# Submitted via: ExactAudioCopy v0.90b3
#
DISCID=a609a60d
DTITLE=ETSU Bluegrass Band - ETSU Bluegrass Pride
DYEAR=2001
DGENRE=Bluegrass
TTITLE0=In Those Mines
TTITLE1=Little Bird of Heaven
TTITLE2=Dorothy's Waltz
TTITLE3=Lonesome Dreams
TTITLE4=The Rain
TTITLE5=Tiger Creek
TTITLE6=Are There too Many Questions on My Mind?
TTITLE7=Quiet Now
TTITLE8=Eleanor's Waltz
TTITLE9=Change of Conversation
TTITLE10=Wild Mountain Rose
TTITLE11=One Time Charlie's Railroad Blues
TTITLE12=Chickens of Barnfeld
EXTD=
EXTT0=
EXTT1=
EXTT2=
EXTT3=
EXTT4=
EXTT5=
EXTT6=
EXTT7=
EXTT8=
EXTT9=
EXTT10=
EXTT11=
EXTT12=
PLAYORDER=
